# xmcd
#
# Track frame offsets:
#	150
#	20325
#	33729
#	45314
#	64569
#	77435
#	105621
#	124975
#	146186
#	166782
#	191488
#	211205
#
# Disc length: 2994 seconds
#
# Revision: 1
# Processed by: cddbd v1.5.1PL0 Copyright (c) Steve Scherf et al.
# Submitted via: dBpowerAMP V4.0
#
DISCID=9b0bb00c
DTITLE=Devourment - Molesting The Decapitated (1.3.8.)
DYEAR=2000
DGENRE=Death Metal
TTITLE0=Babykiller
TTITLE1=Shroud of Encryption (demo)
TTITLE2=Festering Vomitous Mass (demo)
TTITLE3=Choking on Bile (demo)
TTITLE4=Festering Vomitous Mass
TTITLE5=Postmortal Coprophagia
TTITLE6=Choking on Bile
TTITLE7=Molesting the Decapitated
TTITLE8=Self Disembowlment
TTITLE9=Fucked of Death
TTITLE10=Devour the Damned
TTITLE11=Shroud of Encryption
EXTD=
EXTT0=
EXTT1=
EXTT2=
EXTT3=
EXTT4=
EXTT5=
EXTT6=
EXTT7=
EXTT8=
EXTT9=
EXTT10=
EXTT11=
PLAYORDER=
